<svg preserveAspectRatio="none" width="100%" height="100%" overflow="visible" style="display: block;" viewBox="0 0 1828.19 1475.43" fill="none" xmlns="http://www.w3.org/2000/svg">
<g id="BG">
<path id="Ellipse" d="M662.966 1240.97C662.966 1370.46 557.992 1475.43 428.5 1475.43C299.008 1475.43 194.034 1370.46 194.034 1240.97C194.034 1111.47 299.008 1006.5 428.5 1006.5C557.992 1006.5 662.966 1111.47 662.966 1240.97Z" fill="var(--fill-0, #274FC7)"/>
<circle id="Ellipse_2" cx="387.566" cy="387.566" r="387.566" transform="rotate(90 387.566 387.566)" fill="var(--fill-0, #264ECA)"/>
<path id="Vector 1" d="M1645.69 788C1749.19 737 1698.5 763.5 1828.19 718V1287.5H1240C1240 1248.83 1244.9 1196.27 1306.69 1160.5C1344.69 1138.5 1516.17 1140.17 1559 1112.5C1628.83 1090.33 1549.19 867.5 1645.69 788Z" fill="var(--fill-0, #274FC7)"/>
</g>
</svg>
